<?xml version="1.0" encoding="UTF-8" standalone="no"?>
<!DOCTYPE svg PUBLIC "-//W3C//DTD SVG 1.1//EN" "http://www.w3.org/Graphics/SVG/1.1/DTD/svg11.dtd">
<svg width="100%" height="100%" viewBox="0 0 2341 695" version="1.1" xmlns="http://www.w3.org/2000/svg" xmlns:xlink="http://www.w3.org/1999/xlink" xml:space="preserve" xmlns:serif="http://www.serif.com/" style="fill-rule:evenodd;clip-rule:evenodd;stroke-linejoin:round;stroke-miterlimit:2;">
    <g transform="matrix(1,0,0,1,-2479,-5)">
        <g id="accurify-white" transform="matrix(1,0,0,1,1844,-832)">
            <rect x="635" y="837" width="2341" height="695" style="fill:none;"/>
            <g transform="matrix(41.496917,0,0,41.740559,-8322.933588,-5499.613421)">
                <g>
                    <path d="M229.283,164.53C228.465,164.53 227.741,164.349 227.111,163.988C226.481,163.627 225.989,163.131 225.634,162.499C225.28,161.868 225.102,161.148 225.102,160.34C225.102,159.505 225.28,158.77 225.634,158.135C225.989,157.499 226.481,156.999 227.111,156.635C227.741,156.272 228.466,156.09 229.286,156.09C230.324,156.09 231.197,156.362 231.905,156.906C232.613,157.45 233.064,158.203 233.258,159.165L230.883,159.165C230.789,158.803 230.598,158.519 230.308,158.313C230.019,158.107 229.672,158.004 229.267,158.004C228.899,158.004 228.574,158.096 228.29,158.281C228.007,158.465 227.785,158.73 227.625,159.075C227.465,159.42 227.385,159.832 227.385,160.31C227.385,160.666 227.431,160.986 227.522,161.27C227.614,161.554 227.744,161.797 227.912,161.999C228.08,162.2 228.279,162.355 228.508,162.461C228.738,162.568 228.991,162.621 229.267,162.621C229.538,162.621 229.782,162.576 229.999,162.485C230.216,162.394 230.402,162.261 230.558,162.086C230.714,161.911 230.822,161.7 230.883,161.454L233.258,161.454C233.065,162.391 232.613,163.139 231.902,163.695C231.191,164.251 230.318,164.53 229.283,164.53Z" style="fill:white;fill-rule:nonzero;"/>
                    <path d="M237.604,164.53C236.786,164.53 236.061,164.349 235.432,163.988C234.802,163.627 234.31,163.131 233.955,162.499C233.6,161.868 233.423,161.148 233.423,160.34C233.423,159.505 233.6,158.77 233.955,158.135C234.31,157.499 234.802,156.999 235.432,156.635C236.061,156.272 236.787,156.09 237.607,156.09C238.645,156.09 239.518,156.362 240.226,156.906C240.934,157.45 241.385,158.203 241.579,159.165L239.204,159.165C239.11,158.803 238.918,158.519 238.629,158.313C238.339,158.107 237.992,158.004 237.588,158.004C237.22,158.004 236.895,158.096 236.611,158.281C236.328,158.465 236.106,158.73 235.946,159.075C235.785,159.42 235.705,159.832 235.705,160.31C235.705,160.666 235.751,160.986 235.843,161.27C235.935,161.554 236.065,161.797 236.233,161.999C236.401,162.2 236.599,162.355 236.829,162.461C237.059,162.568 237.312,162.621 237.588,162.621C237.859,162.621 238.103,162.576 238.32,162.485C238.537,162.394 238.723,162.261 238.879,162.086C239.035,161.911 239.143,161.7 239.204,161.454L241.579,161.454C241.386,162.391 240.934,163.139 240.223,163.695C239.512,164.251 238.639,164.53 237.604,164.53Z" style="fill:white;fill-rule:nonzero;"/>
                    <path d="M245.01,164.53C244.352,164.53 243.792,164.393 243.328,164.121C242.864,163.849 242.512,163.445 242.27,162.911C242.028,162.377 241.908,161.721 241.908,160.945L241.908,156.282L244.137,156.282L244.137,160.717C244.137,161.348 244.27,161.827 244.534,162.155C244.798,162.482 245.209,162.646 245.765,162.646C246.117,162.646 246.43,162.566 246.703,162.404C246.977,162.243 247.192,162.009 247.349,161.704C247.505,161.399 247.583,161.025 247.583,160.584L247.583,156.282L249.823,156.282L249.823,164.338L247.856,164.338L247.683,163.037C247.442,163.487 247.095,163.849 246.643,164.121C246.19,164.393 245.646,164.53 245.01,164.53Z" style="fill:white;fill-rule:nonzero;"/>
                    <path d="M250.004,164.338L250.004,156.282L251.992,156.282L252.203,157.758C252.407,157.411 252.653,157.113 252.943,156.866C253.233,156.619 253.567,156.427 253.947,156.292C254.327,156.157 254.743,156.09 255.197,156.09L255.197,158.455L254.435,158.455C254.117,158.455 253.823,158.491 253.553,158.562C253.284,158.634 253.051,158.752 252.855,158.916C252.659,159.081 252.508,159.306 252.402,159.59C252.297,159.874 252.244,160.228 252.244,160.653L252.244,164.338L250.004,164.338Z" style="fill:white;fill-rule:nonzero;"/>
                    <rect x="255.375" y="156.282" width="2.24" height="8.056" style="fill:white;"/>
                    <path d="M258.838,164.338L258.838,155.602C258.838,154.919 258.954,154.375 259.186,153.97C259.419,153.566 259.747,153.273 260.173,153.091C260.598,152.909 261.096,152.818 261.667,152.818L262.674,152.818L262.674,154.721L262.014,154.721C261.678,154.721 261.439,154.788 261.294,154.921C261.15,155.054 261.078,155.278 261.078,155.595L261.078,164.338L258.838,164.338ZM257.746,158.149L257.746,156.282L262.793,156.282L262.793,158.149L257.746,158.149Z" style="fill:white;fill-rule:nonzero;"/>
                    <g transform="matrix(1,0,0,1,0.337374,0)">
                        <path d="M264.224,167.858L266.175,163.442L265.69,163.442L262.454,156.282L264.889,156.282L267.17,161.372L269.172,156.282L271.563,156.282L266.596,167.858L264.224,167.858Z" style="fill:white;fill-rule:nonzero;"/>
                    </g>
                    <g transform="matrix(0.024098,0,0,0.023958,200.495224,130.678974)">
                        <circle cx="2323" cy="998" r="51" style="fill:rgb(239,92,85);"/>
                    </g>
                    <g transform="matrix(0.004967,0,0,0.004938,207.064298,161.974811)">
                        <path d="M2551.609,493.257C2412.443,493.257 2297.217,470.583 2205.932,425.236C2114.648,379.889 2046.879,318.7 2002.625,241.669C1958.372,164.637 1936.245,80.011 1936.245,-12.212C1936.245,-113.566 1962.148,-203.01 2013.953,-280.545C2065.759,-358.08 2144.778,-419.069 2251.01,-463.514C2357.243,-507.958 2491.106,-530.18 2652.599,-530.18L3063.016,-530.18C3063.016,-611.222 3052.851,-677.845 3032.521,-730.05C3012.191,-782.255 2979.3,-821.43 2933.849,-847.576C2888.398,-873.722 2827.634,-886.795 2751.557,-886.795C2669.578,-886.795 2599.978,-869.165 2542.755,-833.904C2485.533,-798.644 2450.186,-745.18 2436.714,-673.514L1984.787,-673.514C1996.905,-793.757 2036.627,-897.897 2103.953,-985.936C2171.28,-1073.974 2261.175,-1142.507 2373.641,-1191.535C2486.106,-1240.562 2612.79,-1265.076 2753.693,-1265.076C2912.79,-1265.076 3050.42,-1238.887 3166.583,-1186.509C3282.747,-1134.13 3372.304,-1057.75 3435.255,-957.368C3498.207,-856.986 3529.682,-733.913 3529.682,-588.149L3529.682,453.257L3138.068,453.257L3084.943,200.809C3061.54,243.83 3032.825,283.057 2998.797,318.491C2964.769,353.925 2925.733,384.811 2881.688,411.148C2837.642,437.485 2788.233,457.754 2733.458,471.955C2678.684,486.156 2618.068,493.257 2551.609,493.257ZM2665.047,134.299C2720.741,134.299 2770.464,124.481 2814.214,104.846C2857.964,85.21 2895.759,57.953 2927.599,23.075C2959.439,-11.804 2984.96,-52.203 3004.162,-98.123C3023.363,-144.043 3036.54,-193.097 3043.693,-245.285L3043.693,-249.139L2706.557,-249.139C2642.773,-249.139 2590.29,-240.866 2549.109,-224.321C2507.929,-207.776 2477.634,-184.825 2458.224,-155.467C2438.814,-126.109 2429.109,-92.09 2429.109,-53.41C2429.109,-12.576 2438.971,21.842 2458.693,49.846C2478.415,77.849 2506.019,98.925 2541.505,113.075C2576.991,127.224 2618.172,134.299 2665.047,134.299Z" style="fill:white;fill-rule:nonzero;"/>
                    </g>
                    <g transform="matrix(0.023599,-0.004851,0.006717,0.0323,192.2449,123.311669)">
                        <rect x="757" y="1300" width="124" height="44" style="fill:white;"/>
                    </g>
                </g>
            </g>
        </g>
    </g>
</svg>
