<?xml version="1.0" encoding="UTF-8" standalone="no"?>
<!DOCTYPE svg PUBLIC "-//W3C//DTD SVG 1.1//EN" "http://www.w3.org/Graphics/SVG/1.1/DTD/svg11.dtd">
<svg width="100%" height="100%" viewBox="0 0 640 662" version="1.1" xmlns="http://www.w3.org/2000/svg" xmlns:xlink="http://www.w3.org/1999/xlink" xml:space="preserve" xmlns:serif="http://www.serif.com/" style="fill-rule:evenodd;clip-rule:evenodd;stroke-linejoin:round;stroke-miterlimit:2;">
    <g transform="matrix(1,0,0,1,-29,-791)">
        <rect id="Artboard2" x="29" y="791" width="640" height="662" style="fill:none;"/>
        <g id="Artboard21" serif:id="Artboard2">
            <g transform="matrix(1,0,0,1,1.077451,-3.59513)">
                <g transform="matrix(0.247632,0,0,0.247631,-328.846243,1221.158469)">
                    <path d="M2551.609,493.257C2412.443,493.257 2297.217,470.583 2205.932,425.236C2114.648,379.889 2046.879,318.7 2002.625,241.669C1958.372,164.637 1936.245,80.011 1936.245,-12.212C1936.245,-113.566 1962.148,-203.01 2013.953,-280.545C2065.759,-358.08 2144.778,-419.069 2251.01,-463.514C2357.243,-507.958 2491.106,-530.18 2652.599,-530.18L3063.016,-530.18C3063.016,-611.222 3052.851,-677.845 3032.521,-730.05C3012.191,-782.255 2979.3,-821.43 2933.849,-847.576C2888.398,-873.722 2827.634,-886.795 2751.557,-886.795C2669.578,-886.795 2599.978,-869.165 2542.755,-833.904C2485.533,-798.644 2450.186,-745.18 2436.714,-673.514L1984.787,-673.514C1996.905,-793.757 2036.627,-897.897 2103.953,-985.936C2171.28,-1073.974 2261.175,-1142.507 2373.641,-1191.535C2486.106,-1240.562 2612.79,-1265.076 2753.693,-1265.076C2912.79,-1265.076 3050.42,-1238.887 3166.583,-1186.509C3282.747,-1134.13 3372.304,-1057.75 3435.255,-957.368C3498.207,-856.986 3529.682,-733.913 3529.682,-588.149L3529.682,453.257L3138.068,453.257L3084.943,200.809C3061.54,243.83 3032.825,283.057 2998.797,318.491C2964.769,353.925 2925.733,384.811 2881.688,411.148C2837.642,437.485 2788.233,457.754 2733.458,471.955C2678.684,486.156 2618.068,493.257 2551.609,493.257ZM2665.047,134.299C2720.741,134.299 2770.464,124.481 2814.214,104.846C2857.964,85.21 2895.759,57.953 2927.599,23.075C2959.439,-11.804 2984.96,-52.203 3004.162,-98.123C3023.363,-144.043 3036.54,-193.097 3043.693,-245.285L3043.693,-249.139L2706.557,-249.139C2642.773,-249.139 2590.29,-240.866 2549.109,-224.321C2507.929,-207.776 2477.634,-184.825 2458.224,-155.467C2438.814,-126.109 2429.109,-92.09 2429.109,-53.41C2429.109,-12.576 2438.971,21.842 2458.693,49.846C2478.415,77.849 2506.019,98.925 2541.505,113.075C2576.991,127.224 2618.172,134.299 2665.047,134.299Z" style="fill:rgb(0,80,230);fill-rule:nonzero;"/>
                </g>
                <g transform="matrix(1.176538,-0.243269,0.334879,1.619785,-1067.673473,-717.72588)">
                    <rect x="757" y="1300" width="124" height="44" style="fill:rgb(0,80,230);"/>
                </g>
            </g>
        </g>
    </g>
</svg>
